<svg width="16" height="16" viewBox="0 0 16 16" fill="none" xmlns="http://www.w3.org/2000/svg">
<path fill-rule="evenodd" clip-rule="evenodd" d="M8 14C11.3137 14 14 11.3137 14 8C14 4.68629 11.3137 2 8 2C4.68629 2 2 4.68629 2 8C2 11.3137 4.68629 14 8 14ZM7.99992 5.29163C7.42462 5.29163 6.95825 5.758 6.95825 6.33329C6.95825 6.67847 6.67843 6.95829 6.33325 6.95829C5.98807 6.95829 5.70825 6.67847 5.70825 6.33329C5.70825 5.06764 6.73427 4.04163 7.99992 4.04163C9.26557 4.04163 10.2916 5.06764 10.2916 6.33329C10.2916 7.11934 9.89527 7.81267 9.29442 8.22452C9.08424 8.36858 8.90421 8.51485 8.78045 8.66383C8.65911 8.80992 8.62499 8.91781 8.625 8.99995C8.62503 9.34513 8.34523 9.62497 8.00005 9.625C7.65487 9.62503 7.37503 9.34523 7.375 9.00005C7.37496 8.5299 7.5836 8.14841 7.81891 7.86513C8.05181 7.58475 8.34233 7.36166 8.5877 7.19347C8.86307 7.00472 9.04159 6.68978 9.04159 6.33329C9.04159 5.758 8.57522 5.29163 7.99992 5.29163ZM8 10.375C8.34518 10.375 8.625 10.6548 8.625 11V11.3333C8.625 11.6785 8.34518 11.9583 8 11.9583C7.65482 11.9583 7.375 11.6785 7.375 11.3333V11C7.375 10.6548 7.65482 10.375 8 10.375Z" fill="#737373"/>
</svg>
