<svg width="20" height="20" viewBox="0 0 20 20" fill="none" xmlns="http://www.w3.org/2000/svg">
<path d="M13.3333 3.33334H6.66668C4.82573 3.33334 3.33334 4.82573 3.33334 6.66668V13.3333C3.33334 15.1743 4.82573 16.6667 6.66668 16.6667H13.3333C15.1743 16.6667 16.6667 15.1743 16.6667 13.3333V6.66668C16.6667 4.82573 15.1743 3.33334 13.3333 3.33334Z" stroke="#737373" stroke-width="1.25" stroke-linecap="round" stroke-linejoin="round"/>
<path d="M10 12.5C11.3807 12.5 12.5 11.3807 12.5 10C12.5 8.61929 11.3807 7.5 10 7.5C8.61929 7.5 7.5 8.61929 7.5 10C7.5 11.3807 8.61929 12.5 10 12.5Z" stroke="#737373" stroke-width="1.25" stroke-linecap="round" stroke-linejoin="round"/>
<path d="M13.75 6.25V6.251" stroke="#737373" stroke-width="1.25" stroke-linecap="round" stroke-linejoin="round"/>
</svg>
