<svg width="20" height="20" viewBox="0 0 20 20" fill="none" xmlns="http://www.w3.org/2000/svg">
<path d="M12.4587 2.86484C12.4585 3.67173 12.7515 4.45121 13.2832 5.05817C14.341 6.27928 15.8032 6.20928 15.8032 6.20928V8.61262C14.6033 8.61467 13.4333 8.23917 12.4587 7.53928V12.4315C12.4587 14.8815 10.4754 16.8648 8.03317 16.8648C5.75427 16.8648 3.6076 15.0215 3.6076 12.4315C3.6076 9.97419 5.61218 8.00806 8.03317 8.00477V10.4089C6.94304 10.4071 6.01872 11.2996 6.01872 12.4315C6.01872 13.5515 6.9365 14.4537 8.04094 14.4537C8.56318 14.4537 9.06501 14.2509 9.44076 13.8882C9.81651 13.5255 10.0369 13.0312 10.0554 12.5093V2.86484H12.4587Z" stroke="#737373" stroke-width="1.25" stroke-linejoin="round"/>
</svg>
