<svg width="20" height="20" viewBox="0 0 20 20" fill="none" xmlns="http://www.w3.org/2000/svg">
<path d="M3.33325 5.83331H16.6666" stroke="#DC2626" stroke-width="1.25" stroke-linecap="round" stroke-linejoin="round"/>
<path d="M8.33325 9.16663V14.1666" stroke="#DC2626" stroke-width="1.25" stroke-linecap="round" stroke-linejoin="round"/>
<path d="M11.6665 9.16663V14.1666" stroke="#DC2626" stroke-width="1.25" stroke-linecap="round" stroke-linejoin="round"/>
<path d="M4.1665 5.83331L4.99984 15.8333C4.99984 16.2753 5.17543 16.6992 5.48799 17.0118C5.80055 17.3244 6.22447 17.5 6.6665 17.5H13.3331C13.7752 17.5 14.1991 17.3244 14.5117 17.0118C14.8242 16.6992 14.9998 16.2753 14.9998 15.8333L15.8331 5.83331" stroke="#DC2626" stroke-width="1.25" stroke-linecap="round" stroke-linejoin="round"/>
<path d="M7.5 5.8333V3.3333C7.5 3.11229 7.5878 2.90033 7.74408 2.74405C7.90036 2.58777 8.11232 2.49997 8.33333 2.49997H11.6667C11.8877 2.49997 12.0996 2.58777 12.2559 2.74405C12.4122 2.90033 12.5 3.11229 12.5 3.3333V5.8333" stroke="#DC2626" stroke-width="1.25" stroke-linecap="round" stroke-linejoin="round"/>
</svg>
