<svg width="20" height="20" viewBox="0 0 20 20" fill="none" xmlns="http://www.w3.org/2000/svg">
<path d="M18.3334 3.34168C17.5 3.75001 16.6834 3.91584 15.8334 4.16668C14.8992 3.11251 13.5142 3.05418 12.1834 3.55251C10.8525 4.05084 9.98086 5.26918 10 6.66668V7.50001C7.29586 7.56918 4.88752 6.33751 3.33335 4.16668C3.33335 4.16668 -0.151647 10.3608 6.66669 13.3333C5.10669 14.3725 3.55085 15.0733 1.66669 15C4.42335 16.5025 7.42752 17.0192 10.0284 16.2642C13.0117 15.3975 15.4634 13.1617 16.4042 9.81251C16.6849 8.7939 16.8242 7.74156 16.8184 6.68501C16.8167 6.47751 18.0767 4.37501 18.3334 3.34084V3.34168Z" stroke="#737373" stroke-width="1.25" stroke-linecap="round" stroke-linejoin="round"/>
</svg>
