<svg width="36" height="36" viewBox="0 0 36 36" fill="none" xmlns="http://www.w3.org/2000/svg">
<path d="M17.9999 13.125C18.4832 13.125 18.8749 12.7333 18.8749 12.25C18.8749 11.7668 18.4832 11.375 17.9999 11.375C17.5167 11.375 17.1249 11.7668 17.1249 12.25C17.1249 12.7333 17.5167 13.125 17.9999 13.125Z" stroke="#737373" stroke-width="1.75" stroke-linecap="round" stroke-linejoin="round"/>
<path d="M17.9999 18.875C18.4832 18.875 18.8749 18.4833 18.8749 18C18.8749 17.5168 18.4832 17.125 17.9999 17.125C17.5167 17.125 17.1249 17.5168 17.1249 18C17.1249 18.4833 17.5167 18.875 17.9999 18.875Z" stroke="#737373" stroke-width="1.75" stroke-linecap="round" stroke-linejoin="round"/>
<path d="M17.9999 24.625C18.4832 24.625 18.8749 24.2333 18.8749 23.75C18.8749 23.2668 18.4832 22.875 17.9999 22.875C17.5167 22.875 17.1249 23.2668 17.1249 23.75C17.1249 24.2333 17.5167 24.625 17.9999 24.625Z" stroke="#737373" stroke-width="1.75" stroke-linecap="round" stroke-linejoin="round"/>
</svg>
