<svg width="20" height="20" viewBox="0 0 20 20" fill="none" xmlns="http://www.w3.org/2000/svg">
<path d="M6.66667 10H3.33333C2.8731 10 2.5 10.3731 2.5 10.8333V15.8333C2.5 16.2936 2.8731 16.6667 3.33333 16.6667H6.66667C7.1269 16.6667 7.5 16.2936 7.5 15.8333V10.8333C7.5 10.3731 7.1269 10 6.66667 10Z" stroke="#737373" stroke-width="1.5" stroke-linecap="round" stroke-linejoin="round"/>
<path d="M11.6667 6.66666H8.33333C7.8731 6.66666 7.5 7.03975 7.5 7.49999V15.8333C7.5 16.2936 7.8731 16.6667 8.33333 16.6667H11.6667C12.1269 16.6667 12.5 16.2936 12.5 15.8333V7.49999C12.5 7.03975 12.1269 6.66666 11.6667 6.66666Z" stroke="#737373" stroke-width="1.5" stroke-linecap="round" stroke-linejoin="round"/>
<path d="M16.6667 3.33334H13.3333C12.8731 3.33334 12.5 3.70644 12.5 4.16668V15.8333C12.5 16.2936 12.8731 16.6667 13.3333 16.6667H16.6667C17.1269 16.6667 17.5 16.2936 17.5 15.8333V4.16668C17.5 3.70644 17.1269 3.33334 16.6667 3.33334Z" stroke="#737373" stroke-width="1.5" stroke-linecap="round" stroke-linejoin="round"/>
<path d="M3.33334 16.6667H15" stroke="#737373" stroke-width="1.75" stroke-linecap="round" stroke-linejoin="round"/>
</svg>
