<svg width="20" height="19" viewBox="0 0 20 19" fill="none" xmlns="http://www.w3.org/2000/svg">
<path d="M0.999023 17.9999H18.999M17.0014 18.0001V14.0001M11.9999 18V4C11.9999 3.20435 11.6838 2.44129 11.1212 1.87868C10.5586 1.31607 9.79551 1 8.99987 1H4.99988C4.20423 1 3.44118 1.31607 2.87857 1.87868C2.31596 2.44129 1.99989 3.20435 1.99989 4V18M6.99987 14V18M5.99974 10H7.99973M5.99974 6.00002H7.99973M16.9994 14C17.5298 14 18.0385 13.7893 18.4136 13.4142C18.7887 13.0392 18.9994 12.5305 18.9994 12V10C18.9994 9.46959 18.7887 8.96088 18.4136 8.58581C18.0385 8.21073 17.5298 8.00002 16.9994 8.00002C16.469 8.00002 15.9603 8.21073 15.5852 8.58581C15.2101 8.96088 14.9994 9.46959 14.9994 10V12C14.9994 12.5305 15.2101 13.0392 15.5852 13.4142C15.9603 13.7893 16.469 14 16.9994 14Z" stroke-width="1.75" stroke-linecap="round" stroke-linejoin="round"/>
</svg>
