<svg width="20" height="16" viewBox="0 0 20 16" fill="none" xmlns="http://www.w3.org/2000/svg">
<path d="M13.0017 1.00018V3.00018M13.0017 6.99995V8.99995M13.0017 13.0001V15.0001M2.99914 1.00018H16.9991C17.5295 1.00018 18.0382 1.2109 18.4133 1.58597C18.7884 1.96104 18.9991 2.46975 18.9991 3.00018V6.00018C18.4686 6.00018 17.9599 6.2109 17.5849 6.58597C17.2098 6.96104 16.9991 7.46975 16.9991 8.00018C16.9991 8.53062 17.2098 9.03932 17.5849 9.4144C17.9599 9.78947 18.4686 10.0002 18.9991 10.0002V13.0002C18.9991 13.5306 18.7884 14.0393 18.4133 14.4144C18.0382 14.7895 17.5295 15.0002 16.9991 15.0002H2.99914C2.46871 15.0002 1.96 14.7895 1.58493 14.4144C1.20986 14.0393 0.999146 13.5306 0.999146 13.0002V10.0002C1.52958 10.0002 2.03828 9.78947 2.41335 9.4144C2.78843 9.03932 2.99914 8.53062 2.99914 8.00018C2.99914 7.46975 2.78843 6.96104 2.41335 6.58597C2.03828 6.2109 1.52958 6.00018 0.999146 6.00018V3.00018C0.999146 2.46975 1.20986 1.96104 1.58493 1.58597C1.96 1.2109 2.46871 1.00018 2.99914 1.00018Z" stroke-width="1.75" stroke-linecap="round" stroke-linejoin="round"/>
</svg>
