<svg width="20" height="20" viewBox="0 0 20 20" fill="none" xmlns="http://www.w3.org/2000/svg">
<path d="M12.5 4.16666V5.83332" stroke="#737373" stroke-width="1.5" stroke-linecap="round" stroke-linejoin="round"/>
<path d="M12.5 9.16666V10.8333" stroke="#737373" stroke-width="1.5" stroke-linecap="round" stroke-linejoin="round"/>
<path d="M12.5 14.1667V15.8333" stroke="#737373" stroke-width="1.5" stroke-linecap="round" stroke-linejoin="round"/>
<path d="M4.16667 4.16666H15.8333C16.2754 4.16666 16.6993 4.34225 17.0118 4.65481C17.3244 4.96737 17.5 5.3913 17.5 5.83332V8.33332C17.058 8.33332 16.634 8.50892 16.3215 8.82148C16.0089 9.13404 15.8333 9.55796 15.8333 9.99999C15.8333 10.442 16.0089 10.8659 16.3215 11.1785C16.634 11.4911 17.058 11.6667 17.5 11.6667V14.1667C17.5 14.6087 17.3244 15.0326 17.0118 15.3452C16.6993 15.6577 16.2754 15.8333 15.8333 15.8333H4.16667C3.72464 15.8333 3.30072 15.6577 2.98816 15.3452C2.67559 15.0326 2.5 14.6087 2.5 14.1667V11.6667C2.94203 11.6667 3.36595 11.4911 3.67851 11.1785C3.99107 10.8659 4.16667 10.442 4.16667 9.99999C4.16667 9.55796 3.99107 9.13404 3.67851 8.82148C3.36595 8.50892 2.94203 8.33332 2.5 8.33332V5.83332C2.5 5.3913 2.67559 4.96737 2.98816 4.65481C3.30072 4.34225 3.72464 4.16666 4.16667 4.16666Z" stroke="#737373" stroke-width="1.5" stroke-linecap="round" stroke-linejoin="round"/>
</svg>
